<svg id="Group_11252" data-name="Group 11252" xmlns="http://www.w3.org/2000/svg" width="17.841" height="13.369" viewBox="0 0 17.841 13.369">
  <path id="Path_47112" data-name="Path 47112" d="M-166.951,1395.584c2.3,0,4.606.016,6.909-.008.858-.009,1.582.241,1.81,1.091a1.869,1.869,0,0,1-.7,2.293c-2.205,1.532-4.327,3.182-6.5,4.762-1.287.936-1.9.928-3.207-.023-2.17-1.583-4.3-3.224-6.5-4.767a1.783,1.783,0,0,1-.7-2.188,1.658,1.658,0,0,1,1.869-1.168C-171.627,1395.6-169.289,1395.584-166.951,1395.584Z" transform="translate(175.949 -1395.575)" fill="#6a6a6a"/>
  <path id="Path_47113" data-name="Path 47113" d="M-175.787,1417.047c.533,0,.777.331,1.07.545,1.8,1.316,3.584,2.657,5.384,3.973,1.932,1.413,2.979,1.4,4.9-.023q2.773-2.053,5.552-4.1a1.149,1.149,0,0,1,.829-.382c0,2.528.05,5.054-.029,7.577a1.387,1.387,0,0,1-1.547,1.268q-7.269.025-14.538,0a1.447,1.447,0,0,1-1.592-1.36C-175.84,1422.056-175.787,1419.559-175.787,1417.047Z" transform="translate(175.834 -1412.551)" fill="#6a6a6a"/>
</svg>
