<svg xmlns="http://www.w3.org/2000/svg" xmlns:xlink="http://www.w3.org/1999/xlink" width="21.193" height="21.193" viewBox="0 0 21.193 21.193">
  <defs>
    <clipPath id="clip-path">
      <rect id="Rectangle_5815" data-name="Rectangle 5815" width="21.193" height="21.193" transform="translate(0 0)" fill="#6a6a6a"/>
    </clipPath>
  </defs>
  <g id="Group_10925" data-name="Group 10925" transform="translate(0 0)" clip-path="url(#clip-path)">
    <path id="Path_46951" data-name="Path 46951" d="M1206.508,4130.528a3.113,3.113,0,0,1-1.763,1.763c-1.221.487-4.118.372-5.468.372s-4.251.108-5.468-.372a3.116,3.116,0,0,1-1.763-1.763c-.485-1.222-.374-4.118-.374-5.468s-.107-4.251.374-5.466a3.122,3.122,0,0,1,1.763-1.767c1.221-.483,4.118-.372,5.468-.372s4.25-.108,5.468.372a3.128,3.128,0,0,1,1.763,1.767c.485,1.218.374,4.117.374,5.466S1206.993,4129.311,1206.508,4130.528Zm1.979-9.295a5.135,5.135,0,0,0-5.386-5.383c-1.531-.086-6.121-.086-7.653,0a5.13,5.13,0,0,0-5.385,5.381c-.088,1.532-.088,6.122,0,7.652a5.138,5.138,0,0,0,5.385,5.387c1.532.087,6.122.087,7.653,0a5.138,5.138,0,0,0,5.386-5.387c.087-1.53.087-6.116,0-7.65Zm-3.15-1.123a1.11,1.11,0,1,1-1.11-1.112A1.108,1.108,0,0,1,1205.337,4120.11Zm-6.06,8.041a3.091,3.091,0,1,1,3.092-3.091,3.1,3.1,0,0,1-3.092,3.091Zm0-7.849a4.756,4.756,0,1,0,4.756,4.758A4.749,4.749,0,0,0,1199.277,4120.3Z" transform="translate(-1188.676 -4114.472)" fill="#6a6a6a"/>
  </g>
</svg>
