<svg xmlns="http://www.w3.org/2000/svg" width="47.786" height="49.634" viewBox="0 0 47.786 49.634">
  <g id="Group_11390" data-name="Group 11390" transform="translate(3173.509 2501.621)">
    <g id="Group_216" data-name="Group 216" transform="translate(-1896.321 -69.162)">
      <path id="Path_186" data-name="Path 186" d="M-1261.226-2382.83c-3.923,0-7.847.014-11.77-.006-1.883-.01-2.309-.737-1.4-2.36a11.259,11.259,0,0,1,3.464-4.168c.865-.566.849-1.1.515-1.916a27.632,27.632,0,0,0-5.935-8.518c-1.13-1.184-1.036-1.974-.152-3.24a72.727,72.727,0,0,0,10-21.906,1.957,1.957,0,0,0-.3-1.838,3.4,3.4,0,0,1-.092-3.9,3.41,3.41,0,0,1,3.669-1.711,11.828,11.828,0,0,0,3.874,0,3.4,3.4,0,0,1,3.669,1.71,3.437,3.437,0,0,1-.062,3.912,2.127,2.127,0,0,0-.22,2.007,71.188,71.188,0,0,0,10.1,22.037,1.854,1.854,0,0,1-.188,2.743,32.755,32.755,0,0,0-5.877,8.175c-.536,1.128-.628,1.918.636,2.72a10.07,10.07,0,0,1,3.191,3.966c.839,1.559.422,2.282-1.349,2.293C-1253.38-2382.814-1257.3-2382.83-1261.226-2382.83Zm-1.241-34.55c0-3.755.007-7.511-.008-11.267,0-.51.2-1.182-.613-1.323-.671-.117-1.346-.148-1.753.561a1.173,1.173,0,0,0,.288,1.634c1.031.771.781,1.737.513,2.7a77.564,77.564,0,0,1-9.827,22.343,1.582,1.582,0,0,0,.209,2.361,25.446,25.446,0,0,1,5.794,9.361,1.032,1.032,0,0,0,1.2.82q5.385-.025,10.769,0c.612,0,1.015-.1,1.214-.791A23.169,23.169,0,0,1-1249-2400.2c.927-1,.917-1.665.173-2.8a76.175,76.175,0,0,1-9.581-21.736c-.269-.968-.753-2.05.274-2.927a1.28,1.28,0,0,0,.435-1.744c-.4-.706-1.081-.7-1.752-.561-.993.209-.632,1.045-.635,1.628-.024,7.345-.009,14.69-.026,22.036a1.977,1.977,0,0,0,.907,1.91,3.567,3.567,0,0,1,.592,5.484,3.563,3.563,0,0,1-5.291.028,3.609,3.609,0,0,1,.533-5.508,1.961,1.961,0,0,0,.919-1.891C-1262.481-2409.98-1262.466-2413.68-1262.468-2417.38Zm-8.9,32.033h20.219a4.246,4.246,0,0,0-4.235-2.495q-5.867.193-11.743,0A4.191,4.191,0,0,0-1271.37-2385.347Zm11.4-16.052a1.269,1.269,0,0,0-1.225-1.292,1.17,1.17,0,0,0-1.327,1.16,1.174,1.174,0,0,0,1.266,1.375C-1260.475-2400.151-1260.093-2400.653-1259.972-2401.4Z"/>
    </g>
    <path id="Path_182" data-name="Path 182" d="M-3125.723-2484.687a13.486,13.486,0,0,1-.26,2.634,13.515,13.515,0,0,1-.768,2.532,13.463,13.463,0,0,1-1.248,2.334,13.487,13.487,0,0,1-1.678,2.046,13.442,13.442,0,0,1-2.046,1.678,13.419,13.419,0,0,1-2.334,1.248,13.481,13.481,0,0,1-2.533.768,13.446,13.446,0,0,1-2.633.26,13.449,13.449,0,0,1-2.634-.26,13.473,13.473,0,0,1-2.533-.768,13.413,13.413,0,0,1-2.334-1.248,13.387,13.387,0,0,1-2.045-1.678,13.435,13.435,0,0,1-1.679-2.046,13.463,13.463,0,0,1-1.248-2.334,13.515,13.515,0,0,1-.768-2.532,13.485,13.485,0,0,1-.259-2.634,13.47,13.47,0,0,1,.259-2.634,13.524,13.524,0,0,1,.768-2.533,13.428,13.428,0,0,1,1.248-2.334,13.38,13.38,0,0,1,1.679-2.045,13.393,13.393,0,0,1,2.045-1.679,13.413,13.413,0,0,1,2.334-1.248,13.473,13.473,0,0,1,2.533-.768,13.448,13.448,0,0,1,2.634-.259,13.445,13.445,0,0,1,2.633.259,13.481,13.481,0,0,1,2.533.768,13.419,13.419,0,0,1,2.334,1.248,13.448,13.448,0,0,1,2.046,1.679,13.431,13.431,0,0,1,1.678,2.045,13.428,13.428,0,0,1,1.248,2.334,13.524,13.524,0,0,1,.768,2.533A13.472,13.472,0,0,1-3125.723-2484.687Z" fill="#c4956a" opacity="0.502"/>
  </g>
</svg>
