<svg xmlns="http://www.w3.org/2000/svg" width="49.01" height="71.216" viewBox="0 0 49.01 71.216">
  <g id="Group_11389" data-name="Group 11389" transform="translate(3174.733 2687.346)">
    <g id="Group_217" data-name="Group 217" transform="translate(-2511.5 984.996)">
      <path id="Path_187" data-name="Path 187" d="M-629.419-3640.389q-2.566-2.562-5.128-5.13a1.32,1.32,0,0,0-.988-.438.74.74,0,0,1-.757-.5c-.638-1.309-1.3-2.606-1.947-3.91a1.34,1.34,0,0,0-1.247-.862.779.779,0,0,1-.778-.536c-.638-1.308-1.3-2.6-1.949-3.909a1.4,1.4,0,0,0-1.348-.842c-.193,0-.385,0-.577,0-.587-.006-.629-.044-.63-.64,0-2.309.007-4.616-.008-6.924a.785.785,0,0,1,.485-.8,3.81,3.81,0,0,0,2.147-3.335,3.926,3.926,0,0,0-2.548-3.862,3.935,3.935,0,0,0-4.493,1.241,3.939,3.939,0,0,0-.207,4.625,20.555,20.555,0,0,0,1.808,2.133,34.06,34.06,0,0,1,.176,6.9c0,.62-.038.661-.646.666-.11,0-.221.007-.33,0a1.587,1.587,0,0,0-1.688,1.041c-.6,1.279-1.26,2.534-1.889,3.8-.123.248-.265.442-.581.434a1.478,1.478,0,0,0-1.444.962c-.624,1.285-1.28,2.555-1.908,3.839a.711.711,0,0,1-.723.484,1.27,1.27,0,0,0-.965.395q-2.623,2.622-5.244,5.247a1.252,1.252,0,0,0-.3,1.443,1.276,1.276,0,0,0,1.229.815c.357.012.715.017,1.071,0a.488.488,0,0,1,.56.467c.143.769.3,1.535.458,2.3q2.217,11.093,4.427,22.187a2.378,2.378,0,0,0,.7,1.3c1.443,1.413,2.859,2.853,4.293,4.274a1.022,1.022,0,0,1,.337.8c-.014.563-.011,1.126,0,1.69a3.969,3.969,0,0,0,3.942,3.9,3.968,3.968,0,0,0,3.965-3.919c.011-.536.019-1.072,0-1.607a1.136,1.136,0,0,1,.38-.91c1.477-1.457,2.939-2.928,4.409-4.391a1.61,1.61,0,0,0,.486-.839q1.745-8.77,3.5-17.54.694-3.475,1.388-6.95c.154-.771.154-.771.923-.771l.66,0a1.31,1.31,0,0,0,1.341-.833A1.3,1.3,0,0,0-629.419-3640.389Zm-16.691-29.31a1.308,1.308,0,0,1,1.331,1.288,1.308,1.308,0,0,1-1.289,1.332,1.309,1.309,0,0,1-1.331-1.289A1.31,1.31,0,0,1-646.11-3669.7Zm-1.3,8.674c-.007.482,0-2.088,0-1.194C-647.408-3661.822-647.4-3661.424-647.41-3661.026Zm-1.585,9.317c.3-.6.607-1.2.9-1.8a.585.585,0,0,1,.581-.368q1.419.01,2.838,0a.584.584,0,0,1,.589.355q.456.943.938,1.875c.172.332.032.409-.278.408-.891-.005-1.783,0-2.674,0-.864,0-1.727,0-2.591,0C-649.159-3651.248-649.2-3651.3-649-3651.709Zm-3.928,5.216c.287-.578.585-1.15.863-1.731a.608.608,0,0,1,.616-.381q5.352.006,10.706,0a.636.636,0,0,1,.637.414c.278.582.577,1.154.862,1.732.215.436.183.491-.3.491q-3.273.005-6.546,0-3.254,0-6.506,0C-653.137-3645.969-653.162-3646.012-652.923-3646.493Zm.545,32.184c-.411.019-.582-.155-.659-.55-.576-2.938-1.168-5.873-1.755-8.809q-1.353-6.767-2.707-13.534c-.025-.121-.04-.245-.071-.364-.09-.346.053-.489.4-.486.7,0,1.4,0,2.1,0h0c.673,0,1.346.01,2.018,0,.355-.006.515.125.55.494.288,2.952.592,5.9.888,8.853q.521,5.186,1.036,10.37c.116,1.161.237,2.322.35,3.484.043.438-.046.534-.5.541C-651.28-3614.31-651.83-3614.332-652.379-3614.31Zm7.6,8.823h-.009a4.97,4.97,0,0,1,0,.534,1.3,1.3,0,0,1-1.3,1.182,1.285,1.285,0,0,1-1.294-1.142,10.105,10.105,0,0,1-.018-1.107.341.341,0,0,1,.388-.375q.924,0,1.848,0c.276,0,.392.153.391.417C-644.775-3605.814-644.774-3605.65-644.774-3605.486Zm3.032-5.8c-.638.643-1.286,1.277-1.918,1.927a.99.99,0,0,1-.764.325c-1.113-.011-2.225-.006-3.338,0a.871.871,0,0,1-.671-.249c-.675-.684-1.359-1.36-2.036-2.042-.073-.073-.2-.143-.151-.265s.194-.079.3-.079c.354,0,.707,0,1.061,0H-644q1.04,0,2.081,0c.128,0,.31-.065.369.094C-641.5-3611.454-641.659-3611.372-641.743-3611.287Zm-3.468-3.021c-.618-.022-1.236-.015-1.853,0-.344.007-.486-.138-.52-.481-.236-2.431-.486-4.862-.73-7.294q-.559-5.573-1.117-11.145c-.143-1.421-.288-2.841-.427-4.261-.045-.46.041-.556.522-.559,1.084-.006,2.169,0,3.254,0s2.169,0,3.254,0c.472,0,.554.1.507.573q-.633,6.31-1.269,12.621c-.335,3.332-.675,6.664-.994,10C-644.624-3614.429-644.8-3614.293-645.21-3614.309Zm10.559-23.022q-1.862,9.313-3.726,18.625c-.256,1.28-.525,2.556-.761,3.839-.078.424-.277.592-.7.557-.26-.021-.522,0-.783,0v0c-.288,0-.577-.008-.865,0-.387.013-.5-.171-.465-.539.2-1.939.388-3.88.582-5.82q.523-5.226,1.049-10.45c.214-2.132.438-4.262.636-6.4.038-.4.195-.547.593-.542,1.277.015,2.554,0,3.831.005C-634.54-3638.053-634.514-3638.022-634.652-3637.331Zm1.008-3.444c-.064.141-.247.08-.378.08q-5.811.005-11.622,0h-.453q-5.976,0-11.952,0c-.168,0-.411.089-.484-.1-.059-.153.164-.261.276-.374.608-.617,1.228-1.221,1.831-1.841a1,1,0,0,1,.765-.324q9.583.007,19.166,0a.95.95,0,0,1,.729.307c.634.649,1.282,1.283,1.92,1.928C-633.757-3641-633.577-3640.924-633.644-3640.775Z" transform="translate(0 0)"/>
      <path id="Path_188" data-name="Path 188" d="M-197.458-2936.521l-2.081,0h2.081Z" transform="translate(-446.541 -675.155)"/>
    </g>
    <path id="Path_181" data-name="Path 181" d="M-3125.723-2657.687a13.486,13.486,0,0,1-.26,2.634,13.515,13.515,0,0,1-.768,2.532,13.428,13.428,0,0,1-1.248,2.334,13.487,13.487,0,0,1-1.678,2.046,13.442,13.442,0,0,1-2.046,1.678,13.419,13.419,0,0,1-2.334,1.248,13.481,13.481,0,0,1-2.533.768,13.446,13.446,0,0,1-2.633.26,13.449,13.449,0,0,1-2.634-.26,13.473,13.473,0,0,1-2.533-.768,13.413,13.413,0,0,1-2.334-1.248,13.387,13.387,0,0,1-2.045-1.678,13.435,13.435,0,0,1-1.679-2.046,13.428,13.428,0,0,1-1.248-2.334,13.515,13.515,0,0,1-.768-2.532,13.485,13.485,0,0,1-.259-2.634,13.47,13.47,0,0,1,.259-2.634,13.5,13.5,0,0,1,.768-2.533,13.419,13.419,0,0,1,1.248-2.333,13.34,13.34,0,0,1,1.679-2.046,13.393,13.393,0,0,1,2.045-1.679,13.413,13.413,0,0,1,2.334-1.248,13.473,13.473,0,0,1,2.533-.768,13.448,13.448,0,0,1,2.634-.259,13.445,13.445,0,0,1,2.633.259,13.481,13.481,0,0,1,2.533.768,13.419,13.419,0,0,1,2.334,1.248,13.448,13.448,0,0,1,2.046,1.679,13.392,13.392,0,0,1,1.678,2.046,13.419,13.419,0,0,1,1.248,2.333,13.5,13.5,0,0,1,.768,2.533A13.472,13.472,0,0,1-3125.723-2657.687Z" fill="#c4956a" opacity="0.502"/>
  </g>
</svg>
