<svg xmlns="http://www.w3.org/2000/svg" width="77" height="106.919" viewBox="0 0 77 106.919">
  <g id="Group_11346" data-name="Group 11346" transform="translate(-899.805 -6177.333)">
    <g id="Group_11345" data-name="Group 11345" transform="translate(847.052 6112.35)">
      <path id="Path_47128" data-name="Path 47128" d="M91.265,65.983h-.008a35.334,35.334,0,0,0,0,70.667h.016a2.148,2.148,0,0,0,.216-.007,35.31,35.31,0,0,0,35-35.323V101.3A35.326,35.326,0,0,0,91.265,65.983ZM60.516,101.32A30.841,30.841,0,0,1,88.993,70.563l-.029,5.5a25.425,25.425,0,0,0-23.162,25.3,2.255,2.255,0,0,0,2.249,2.247h6.238A17.079,17.079,0,0,0,91.2,118.423a2.247,2.247,0,0,0,2.249-2.25v-9.342a5.916,5.916,0,1,0-4.5-.007v6.9a12.578,12.578,0,0,1-10.311-12.356,2.252,2.252,0,0,0-2.249-2.252H70.421A20.943,20.943,0,0,1,91.19,80.46H91.2a20.929,20.929,0,0,1,20.9,20.9v.015a20.929,20.929,0,0,1-18.946,20.8q-.968.09-1.958.091a17.932,17.932,0,0,1-1.8-.084,2.059,2.059,0,0,0-.233.953v8.944A30.829,30.829,0,0,1,60.516,101.32Zm29.271.047a1.413,1.413,0,1,1,1.41,1.409A1.412,1.412,0,0,1,89.787,101.367Zm3.6,30.709v-5.412a25.43,25.43,0,0,0,23.107-23.057l5.414-.03A30.827,30.827,0,0,1,93.387,132.075Zm23.107-32.966A25.428,25.428,0,0,0,93.462,76.067l.028-5.5a30.832,30.832,0,0,1,28.418,28.516Z" transform="translate(0 0)" fill="none" stroke="#fff" stroke-miterlimit="10" stroke-width="2"/>
    </g>
    <text id="COMPANY" transform="translate(899.805 6280.251)" fill="#fff" font-size="15" font-family="SegoeUI, Segoe UI" letter-spacing="0.075em"><tspan x="0" y="0">COMPANY</tspan></text>
  </g>
</svg>
