<svg xmlns="http://www.w3.org/2000/svg" width="103.91" height="105.919" viewBox="0 0 103.91 105.919">
  <g id="Group_11341" data-name="Group 11341" transform="translate(-52.563 -43.607)">
    <g id="Group_11338" data-name="Group 11338" transform="translate(66.018 129.526)">
      <text id="COMPANY" transform="translate(0 16)" fill="#fff" font-size="15" font-family="SegoeUI, Segoe UI" letter-spacing="0.075em"><tspan x="0" y="0">COMPANY</tspan></text>
    </g>
    <path id="Path_47126" data-name="Path 47126" d="M155.258,64.523H142.046A21.794,21.794,0,0,0,120.3,43.607H88.679A21.792,21.792,0,0,0,66.93,64.523H52.623l-.059,12.891c0,.04,0,.08,0,.121a21.8,21.8,0,0,0,19.7,21.669A21.793,21.793,0,0,0,94.03,120.949h20.916a21.793,21.793,0,0,0,21.767-21.744,21.8,21.8,0,0,0,19.7-21.669c0-.041,0-.081,0-.121l.061-1.216V64.523Zm0,1.216v2.675H125.526A17.776,17.776,0,0,0,107.771,86.17c0,.081.006.162.006.243H105.1c0-.042,0-.081,0-.121a20.573,20.573,0,0,1,20.55-20.552ZM74.33,91.277h60.315a13.758,13.758,0,0,0,13.742-13.742c0-.041,0-.081,0-.121H151.3c0,.08.006.161.006.243A16.558,16.558,0,0,1,134.767,94.2H74.208A16.557,16.557,0,0,1,57.67,77.658c0-.082.005-.163.006-.243h2.916c0,.04,0,.08,0,.121A13.758,13.758,0,0,0,74.33,91.277Zm.354-3.649h59.608a10.024,10.024,0,0,0,10.021-9.961v-.253h2.855c0,.04,0,.08,0,.121A12.539,12.539,0,0,1,134.645,90.06H74.33A12.539,12.539,0,0,1,61.8,77.536c0-.041,0-.081,0-.121H64.54v.253A10.13,10.13,0,0,0,74.684,87.629Zm-8.928-9.961v-.253H82.974a8.6,8.6,0,0,1,8.563,8.745v.254H74.684A8.914,8.914,0,0,1,65.756,77.668ZM88.679,52.849H120.3A12.54,12.54,0,0,1,132.79,64.523h-2.855a10.032,10.032,0,0,0-9.992-9.241H89.033a9.91,9.91,0,0,0-9.871,9.241H76.186A12.54,12.54,0,0,1,88.679,52.849ZM74.967,64.523H72.038a16.555,16.555,0,0,1,16.52-15.808h31.859a16.557,16.557,0,0,1,16.52,15.808h-2.929A13.757,13.757,0,0,0,120.3,51.633H88.679A13.757,13.757,0,0,0,74.967,64.523ZM89.033,56.5h30.91a8.816,8.816,0,0,1,8.773,8.025h-3.068a21.805,21.805,0,0,0-21.159,16.655,21.805,21.805,0,0,0-21.16-16.655H80.381A8.7,8.7,0,0,1,89.033,56.5Zm28.041,29.915v-.254A8.913,8.913,0,0,1,126,77.414h17.1v.253a8.807,8.807,0,0,1-8.806,8.745ZM126,76.2a10.13,10.13,0,0,0-10.143,9.961v.254h-2.733c0-.042,0-.081,0-.121a12.539,12.539,0,0,1,12.525-12.525h29.611V76.2Zm-.354-3.648a13.757,13.757,0,0,0-13.741,13.742c0,.04,0,.08,0,.121h-2.916c0-.081-.007-.162-.007-.243a16.558,16.558,0,0,1,16.54-16.538h29.731V72.55ZM88.679,44.824H120.3a20.575,20.575,0,0,1,20.53,19.7h-2.673A17.773,17.773,0,0,0,120.417,47.5H88.558A17.774,17.774,0,0,0,70.821,64.523H68.149A20.574,20.574,0,0,1,88.679,44.824ZM53.839,65.74h29.49A20.574,20.574,0,0,1,103.88,86.292c0,.04,0,.08,0,.121H101.2c0-.081.006-.162.006-.243A17.775,17.775,0,0,0,83.451,68.414H53.839Zm0,3.892H83.451A16.557,16.557,0,0,1,99.989,86.17c0,.081-.006.162-.006.243H97.067c0-.042,0-.081,0-.121A13.757,13.757,0,0,0,83.329,72.55H53.839Zm0,4.135h29.49A12.54,12.54,0,0,1,95.854,86.292c0,.04,0,.08,0,.121h-3.1v-.254A9.817,9.817,0,0,0,82.974,76.2H53.839Zm61.107,45.967H94.03A20.575,20.575,0,0,1,73.481,99.285c.282.011.564.019.849.019h1.824a17.775,17.775,0,0,0,17.754,17.754h21.16A17.776,17.776,0,0,0,132.822,99.3h1.823c.285,0,.567-.008.849-.019A20.574,20.574,0,0,1,114.946,119.733ZM94.384,109.275h20.208a9.818,9.818,0,0,0,9.779-9.961V99.3h3.1a12.539,12.539,0,0,1-12.522,12.4H94.03A12.537,12.537,0,0,1,81.508,99.3H84.24v.01A10.13,10.13,0,0,0,94.384,109.275Zm-8.928-9.961V99.3h6.08v8.339A8.912,8.912,0,0,1,85.457,99.313Zm7.3,8.623V99.3h2.918v8.755H94.384A11.283,11.283,0,0,1,92.753,107.937Zm4.135.122V99.3h2.675v8.755Zm3.891,0V99.3H103.7v8.755Zm4.135,0V99.3h2.919v8.755Zm4.134,0V99.3h2.675v8.755Zm3.891,0V99.3h2.919v8.633a5.172,5.172,0,0,1-1.266.122Zm4.135-.417V99.3h6.081v.01A8.6,8.6,0,0,1,117.074,107.642ZM94.03,112.923h20.916A13.756,13.756,0,0,0,128.684,99.3h2.922a16.557,16.557,0,0,1-16.539,16.538H93.908A16.557,16.557,0,0,1,77.37,99.3h2.922A13.755,13.755,0,0,0,94.03,112.923Zm40.616-14.836H74.33A20.575,20.575,0,0,1,53.778,77.536c0-.041,0-.081,0-.121H56.46c0,.08-.006.161-.006.243A17.774,17.774,0,0,0,74.208,95.412h60.559a17.775,17.775,0,0,0,17.755-17.754c0-.082-.006-.163-.007-.243h2.679c0,.04,0,.08,0,.121A20.574,20.574,0,0,1,134.645,98.087Z" fill="#fff"/>
  </g>
</svg>
